<svg width="100" height="28" viewBox="0 0 100 28" fill="none" xmlns="http://www.w3.org/2000/svg">
<g id="hyge-2023-blue 1" clip-path="url(#clip0_1_304)">
<path id="Vector" d="M17.8922 21.5136V0.307617H21.5072V9.1382L21.0105 8.61386C21.36 7.71242 21.9303 7.35654 22.7214 6.8966C23.5309 6.41829 24.4691 6.17912 25.5361 6.17912C26.6399 6.17912 27.615 6.41829 28.4613 6.8966C28.8676 7.12137 29.1844 7.35553 29.4777 7.61229C30.1742 8.22186 30.7616 8.98109 30.9932 9.87722C31.1265 10.3927 31.1932 10.9466 31.1932 11.539V21.5136H27.5782V12.3945C27.5782 11.7322 27.4494 11.1619 27.1919 10.6835C26.9343 10.2052 26.5756 9.83728 26.1156 9.57971C25.6741 9.30377 25.1498 9.16577 24.5427 9.16577C23.954 9.16577 23.4297 9.30377 22.9698 9.57971C22.5098 9.83728 22.1511 10.2052 21.8935 10.6835C21.636 11.1619 21.5072 11.7322 21.5072 12.3945V21.5136H17.8922Z" fill="white"/>
<path id="Vector_2" d="M77.0529 21.5286C75.5077 21.5286 74.1554 21.1791 72.9963 20.48C71.8376 19.7809 70.936 18.8335 70.292 17.6377C69.6483 16.4419 69.3262 15.4335 69.3262 13.9801C69.3262 12.4715 69.6483 11.1377 70.292 9.97872C70.9545 8.80133 71.8468 7.87229 72.9689 7.19158C74.1096 6.5109 75.3788 6.17053 76.7769 6.17053C77.9545 6.17053 78.9846 6.3637 79.8677 6.75004C80.7693 7.13638 81.5326 7.66992 82.1582 8.35059C82.7837 9.03127 83.2619 9.81315 83.5933 10.6962C83.9243 11.5609 84.1111 12.4625 84.1111 13.4743C84.1111 13.5488 84.1111 13.5672 84.1111 13.7521C84.1111 13.9188 84.1111 14.4188 84.1111 14.7125H72.3065V11.953H81.8548L80.1437 13.25C80.3093 12.4037 80.2634 11.6494 80.0059 10.9871C79.7665 10.3248 79.3619 9.80053 78.7914 9.41419C78.2397 9.02786 77.568 8.83469 76.7769 8.83469C76.0228 8.83469 75.3514 9.02786 74.7625 9.41419C74.1739 9.78213 73.7231 10.334 73.4105 11.0699C73.116 11.7874 73.0056 12.6613 73.0794 13.6915C73.0056 14.6114 73.1253 15.43 73.4379 16.1475C73.7693 16.8466 74.2474 17.3893 74.8729 17.7756C75.5169 18.162 76.2526 18.3551 77.0806 18.3551C77.9083 18.3551 78.6077 18.1804 79.1779 17.8308C79.7665 17.4813 80.2265 17.0122 80.5576 16.4235L83.4828 17.8584C83.1883 18.5759 82.7286 19.2106 82.1031 19.7625C81.4776 20.3144 80.7323 20.7468 79.8677 21.0595C79.0216 21.3723 78.0834 21.5286 77.0529 21.5286Z" fill="white"/>
<path id="Vector_3" d="M58.248 27.5711C57.1258 27.5711 56.0865 27.3871 55.1295 27.0192C54.1729 26.6513 53.3452 26.1362 52.6461 25.4738C51.9655 24.83 51.4686 24.0665 51.156 23.1834L54.5224 21.914C54.7434 22.6131 55.1757 23.1742 55.8197 23.5974C56.4818 24.0389 57.2914 24.2597 58.248 24.2597C58.984 24.2597 59.6277 24.1217 60.1797 23.8457C60.7498 23.5698 61.1914 23.165 61.5043 22.6315C61.8169 22.1164 61.9732 21.4909 61.9732 20.755V17.3332L62.6634 18.161C62.1483 19.0625 61.4581 19.7432 60.5935 20.2031C59.7289 20.663 58.7446 20.893 57.6409 20.893C56.2428 20.893 54.9917 20.571 53.888 19.9271C52.784 19.2833 51.9194 18.4002 51.2938 17.278C50.6683 16.1558 50.3557 14.8956 50.3557 13.4974C50.3557 12.0808 50.6683 10.8206 51.2938 9.7168C51.9194 8.61298 52.7748 7.74831 53.8603 7.12283C54.9458 6.47892 56.1784 6.15698 57.5581 6.15698C58.6803 6.15698 59.6646 6.39612 60.5108 6.87446C61.3754 7.33437 62.0929 8.00587 62.6634 8.88892L62.1665 9.79957V6.17194H65.5883V20.755C65.5883 22.0612 65.2664 23.2294 64.6224 24.2597C63.9969 25.2899 63.1323 26.0994 62.0286 26.6881C60.9431 27.2768 59.6831 27.5711 58.248 27.5711ZM58.0825 17.5539C58.8551 17.5539 59.5265 17.3884 60.0969 17.0572C60.6855 16.7077 61.1455 16.2294 61.4766 15.6222C61.8077 15.0151 61.9732 14.3161 61.9732 13.525C61.9732 12.7523 61.7985 12.0624 61.4489 11.4553C61.1178 10.8298 60.6578 10.3423 60.0692 9.99274C59.4991 9.6432 58.8366 9.46843 58.0825 9.46843C57.328 9.46843 56.6474 9.6432 56.0403 9.99274C55.4332 10.3423 54.9548 10.8298 54.6052 11.4553C54.2741 12.0624 54.1086 12.7523 54.1086 13.525C54.1086 14.2977 54.2741 14.9875 54.6052 15.5946C54.9548 16.2018 55.424 16.6801 56.0126 17.0296C56.6197 17.3792 57.3098 17.5539 58.0825 17.5539Z" fill="white"/>
<path id="Vector_4" d="M36.3252 27.5182C35.9206 27.5182 35.5249 27.4814 35.1388 27.4079C34.7523 27.3527 34.4028 27.2515 34.0901 27.1043V24.0688C34.3292 24.124 34.6145 24.1792 34.9455 24.2344C35.2951 24.2896 35.6169 24.3171 35.9114 24.3171C36.7391 24.3171 37.3372 24.124 37.7049 23.7376C38.0914 23.3513 38.4317 22.6232 38.7261 21.9977L39.7194 19.6796L39.6643 22.7151L33.1243 6.18542H37.0151L41.596 18.3827H40.2163L44.7695 6.18542H48.688L42.148 22.7151C41.7615 23.6902 41.2923 24.7403 40.7406 25.421C40.1886 26.1017 39.5446 26.6168 38.8089 26.9663C38.0914 27.3343 37.2634 27.5182 36.3252 27.5182Z" fill="white"/>
<path id="Vector_5" fill-rule="evenodd" clip-rule="evenodd" d="M5.54266 13.7855L14.3167 8.64396L12.884 6.1991L-3.05176e-05 13.7491L12.868 21.5186L14.3327 19.0928L5.54266 13.7855Z" fill="white"/>
<path id="Vector_6" fill-rule="evenodd" clip-rule="evenodd" d="M94.4572 13.7855L85.6834 8.64396L87.116 6.1991L100 13.7491L87.132 21.5186L85.6674 19.0928L94.4572 13.7855Z" fill="white"/>
</g>
<defs>
<clipPath id="clip0_1_304">
<rect width="100" height="27.3846" fill="white" transform="translate(0 0.307617)"/>
</clipPath>
</defs>
</svg>
